<?xml version="1.0" standalone="no"?>
<svg xmlns="http://www.w3.org/2000/svg" version="1.2" baseProfile="tiny" width="294" height="412">
<polygon points="0 0 292 0 293 411 0 411" fill="rgb(235,205,189)" fill-opacity="0.5019607843137255"/>
<polygon points="97 81 102 20 214 29 209 90" fill="rgb(0,0,0)" fill-opacity="0.5019607843137255"/>
<polygon points="0 0 64 0 64 278 0 278" fill="rgb(255,255,255)" fill-opacity="0.5019607843137255"/>
<polygon points="228 0 292 0 293 273 229 273" fill="rgb(255,255,255)" fill-opacity="0.5019607843137255"/>
<polygon points="-24 347 67 264 148 354 56 437" fill="rgb(0,0,14)" fill-opacity="0.5019607843137255"/>
<polygon points="148 424 108 369 163 329 203 384" fill="rgb(0,0,18)" fill-opacity="0.5019607843137255"/>
<polygon points="297 291 260 381 190 353 226 263" fill="rgb(3,29,49)" fill-opacity="0.5019607843137255"/>
<polygon points="133 3 42 101 -2 58 88 -38" fill="rgb(255,255,255)" fill-opacity="0.5019607843137255"/>
<polygon points="245 77 312 93 271 272 204 256" fill="rgb(255,255,255)" fill-opacity="0.5019607843137255"/>
<polygon points="0 335 186 335 186 411 0 411" fill="rgb(0,22,37)" fill-opacity="0.5019607843137255"/>
<polygon points="178 30 207 -11 246 16 217 58" fill="rgb(255,255,255)" fill-opacity="0.5019607843137255"/>
<polygon points="56 106 79 64 95 73 72 115" fill="rgb(1,0,0)" fill-opacity="0.5019607843137255"/>
<polygon points="196 339 137 337 140 244 199 247" fill="rgb(231,169,127)" fill-opacity="0.5019607843137255"/>
<polygon points="150 40 171 19 231 81 210 102" fill="rgb(44,16,0)" fill-opacity="0.5019607843137255"/>
<polygon points="153 387 153 335 224 335 224 387" fill="rgb(8,25,37)" fill-opacity="0.5019607843137255"/>
<polygon points="99 18 57 97 -12 59 29 -18" fill="rgb(255,255,255)" fill-opacity="0.5019607843137255"/>
<polygon points="-4 293 -28 232 67 193 92 254" fill="rgb(255,255,255)" fill-opacity="0.5019607843137255"/>
<polygon points="184 392 209 404 203 417 178 405" fill="rgb(223,230,252)" fill-opacity="0.5019607843137255"/>
<polygon points="185 165 229 179 209 241 164 227" fill="rgb(255,198,160)" fill-opacity="0.5019607843137255"/>
<polygon points="276 275 207 254 237 157 306 178" fill="rgb(255,255,255)" fill-opacity="0.5019607843137255"/>
<polygon points="56 276 89 258 104 286 70 304" fill="rgb(0,0,0)" fill-opacity="0.5019607843137255"/>
<polygon points="317 336 290 411 185 373 213 298" fill="rgb(26,43,55)" fill-opacity="0.5019607843137255"/>
<polygon points="218 387 221 408 197 411 194 390" fill="rgb(196,200,214)" fill-opacity="0.5019607843137255"/>
<polygon points="222 387 274 406 269 420 217 401" fill="rgb(227,225,236)" fill-opacity="0.5019607843137255"/>
<polygon points="230 163 222 163 222 127 230 127" fill="rgb(50,39,34)" fill-opacity="0.5019607843137255"/>
<polygon points="166 17 145 -3 151 -10 173 11" fill="rgb(255,255,255)" fill-opacity="0.5019607843137255"/>
<polygon points="161 158 194 161 193 170 160 167" fill="rgb(67,24,17)" fill-opacity="0.5019607843137255"/>
<polygon points="217 320 237 268 312 297 292 349" fill="rgb(59,68,81)" fill-opacity="0.5019607843137255"/>
<polygon points="168 218 163 233 150 229 155 214" fill="rgb(255,176,146)" fill-opacity="0.5019607843137255"/>
<polygon points="166 160 174 193 128 203 120 170" fill="rgb(255,197,160)" fill-opacity="0.5019607843137255"/>
<polygon points="215 386 167 393 162 363 210 356" fill="rgb(17,35,47)" fill-opacity="0.5019607843137255"/>
<polygon points="54 45 70 32 89 54 72 67" fill="rgb(255,255,255)" fill-opacity="0.5019607843137255"/>
<polygon points="191 397 248 395 249 409 192 411" fill="rgb(167,168,179)" fill-opacity="0.5019607843137255"/>
<polygon points="120 201 144 199 149 254 125 256" fill="rgb(167,90,68)" fill-opacity="0.5019607843137255"/>
<polygon points="209 259 214 254 224 264 219 269" fill="rgb(13,16,27)" fill-opacity="0.5019607843137255"/>
<polygon points="208 260 219 282 204 289 193 268" fill="rgb(255,196,148)" fill-opacity="0.5019607843137255"/>
<polygon points="159 314 136 336 93 290 116 268" fill="rgb(174,124,91)" fill-opacity="0.5019607843137255"/>
<polygon points="100 307 130 337 109 358 79 327" fill="rgb(0,0,0)" fill-opacity="0.5019607843137255"/>
<polygon points="131 165 127 153 186 134 190 146" fill="rgb(167,109,76)" fill-opacity="0.5019607843137255"/>
<polygon points="106 28 141 27 142 60 107 61" fill="rgb(12,5,1)" fill-opacity="0.5019607843137255"/>
<polygon points="66 49 48 15 88 -5 106 27" fill="rgb(255,255,255)" fill-opacity="0.5019607843137255"/>
<polygon points="117 347 75 364 41 277 84 260" fill="rgb(1,7,14)" fill-opacity="0.5019607843137255"/>
<polygon points="214 217 136 199 143 168 221 186" fill="rgb(255,191,156)" fill-opacity="0.5019607843137255"/>
<polygon points="191 0 190 19 172 18 173 -1" fill="rgb(255,255,255)" fill-opacity="0.5019607843137255"/>
<polygon points="174 406 145 377 159 363 188 393" fill="rgb(14,30,41)" fill-opacity="0.5019607843137255"/>
<polygon points="193 188 186 169 219 156 227 175" fill="rgb(252,177,137)" fill-opacity="0.5019607843137255"/>
<polygon points="167 87 192 127 172 139 147 99" fill="rgb(254,194,158)" fill-opacity="0.5019607843137255"/>
<polygon points="116 324 98 301 113 290 131 313" fill="rgb(162,113,76)" fill-opacity="0.5019607843137255"/>
<polygon points="0 200 77 200 77 263 0 263" fill="rgb(255,255,255)" fill-opacity="0.5019607843137255"/>
<polygon points="217 -32 297 51 252 94 171 11" fill="rgb(255,255,255)" fill-opacity="0.5019607843137255"/>
<polygon points="199 313 215 275 221 278 205 315" fill="rgb(255,202,165)" fill-opacity="0.5019607843137255"/>
<polygon points="279 338 303 374 262 401 238 365" fill="rgb(36,51,61)" fill-opacity="0.5019607843137255"/>
<polygon points="291 286 274 282 278 264 296 268" fill="rgb(255,255,255)" fill-opacity="0.5019607843137255"/>
<polygon points="87 224 78 223 81 193 90 194" fill="rgb(196,148,110)" fill-opacity="0.5019607843137255"/>
<polygon points="87 48 103 41 107 50 90 57" fill="rgb(61,57,53)" fill-opacity="0.5019607843137255"/>
<polygon points="169 236 174 230 183 237 178 243" fill="rgb(137,73,44)" fill-opacity="0.5019607843137255"/>
<polygon points="242 79 252 116 239 120 229 83" fill="rgb(255,255,255)" fill-opacity="0.5019607843137255"/>
<polygon points="250 264 257 255 278 272 270 281" fill="rgb(255,255,255)" fill-opacity="0.5019607843137255"/>
<polygon points="162 208 163 218 133 221 132 211" fill="rgb(151,75,54)" fill-opacity="0.5019607843137255"/>
<polygon points="171 11 65 12 65 0 171 0" fill="rgb(255,255,255)" fill-opacity="0.5019607843137255"/>
<polygon points="163 307 208 283 215 297 170 320" fill="rgb(241,166,119)" fill-opacity="0.5019607843137255"/>
<polygon points="138 344 139 337 170 340 169 347" fill="rgb(0,0,0)" fill-opacity="0.5019607843137255"/>
<polygon points="213 118 187 91 198 82 223 109" fill="rgb(212,139,96)" fill-opacity="0.5019607843137255"/>
<polygon points="148 136 134 148 121 133 136 121" fill="rgb(238,163,129)" fill-opacity="0.5019607843137255"/>
<polygon points="234 146 241 90 296 97 289 153" fill="rgb(255,255,255)" fill-opacity="0.5019607843137255"/>
<polygon points="70 180 83 194 77 200 65 185" fill="rgb(166,120,94)" fill-opacity="0.5019607843137255"/>
<polygon points="188 332 212 307 222 317 197 341" fill="rgb(4,18,30)" fill-opacity="0.5019607843137255"/>
<polygon points="124 356 156 398 122 424 90 381" fill="rgb(9,31,42)" fill-opacity="0.5019607843137255"/>
<polygon points="127 134 126 146 95 145 96 133" fill="rgb(150,107,82)" fill-opacity="0.5019607843137255"/>
<polygon points="139 354 121 366 99 334 116 322" fill="rgb(0,0,0)" fill-opacity="0.5019607843137255"/>
<polygon points="120 80 117 90 104 87 107 77" fill="rgb(158,92,55)" fill-opacity="0.5019607843137255"/>
<polygon points="264 323 251 292 278 281 291 311" fill="rgb(65,73,86)" fill-opacity="0.5019607843137255"/>
<polygon points="200 266 164 288 159 279 194 256" fill="rgb(174,123,85)" fill-opacity="0.5019607843137255"/>
<polygon points="254 263 213 257 224 190 265 196" fill="rgb(255,255,255)" fill-opacity="0.5019607843137255"/>
<polygon points="85 157 98 180 85 188 72 164" fill="rgb(214,154,115)" fill-opacity="0.5019607843137255"/>
<polygon points="76 217 94 209 111 247 94 255" fill="rgb(189,153,119)" fill-opacity="0.5019607843137255"/>
<polygon points="130 180 134 189 98 206 93 196" fill="rgb(255,181,140)" fill-opacity="0.5019607843137255"/>
<polygon points="257 144 233 125 295 48 319 68" fill="rgb(255,255,255)" fill-opacity="0.5019607843137255"/>
<polygon points="234 150 228 153 217 128 223 125" fill="rgb(122,100,88)" fill-opacity="0.5019607843137255"/>
<polygon points="155 64 170 74 162 85 147 75" fill="rgb(133,77,44)" fill-opacity="0.5019607843137255"/>
<polygon points="171 334 152 339 148 327 167 322" fill="rgb(226,156,127)" fill-opacity="0.5019607843137255"/>
<polygon points="23 391 19 412 -4 407 0 386" fill="rgb(3,18,28)" fill-opacity="0.5019607843137255"/>
<polygon points="131 17 138 11 155 34 147 39" fill="rgb(53,42,34)" fill-opacity="0.5019607843137255"/>
<polygon points="303 404 276 412 254 334 281 326" fill="rgb(39,52,62)" fill-opacity="0.5019607843137255"/>
<polygon points="95 285 97 276 102 277 101 286" fill="rgb(193,130,82)" fill-opacity="0.5019607843137255"/>
<polygon points="10 360 -2 359 0 294 13 295" fill="rgb(42,60,66)" fill-opacity="0.5019607843137255"/>
<polygon points="177 315 200 308 202 318 179 325" fill="rgb(255,194,158)" fill-opacity="0.5019607843137255"/>
<polygon points="87 67 98 48 115 57 104 76" fill="rgb(16,10,9)" fill-opacity="0.5019607843137255"/>
<polygon points="160 352 203 325 230 368 187 395" fill="rgb(21,34,45)" fill-opacity="0.5019607843137255"/>
<polygon points="243 108 304 121 280 235 219 222" fill="rgb(255,255,255)" fill-opacity="0.5019607843137255"/>
<polygon points="170 265 137 271 135 261 168 255" fill="rgb(254,176,132)" fill-opacity="0.5019607843137255"/>
<polygon points="167 90 167 124 132 124 132 90" fill="rgb(243,181,146)" fill-opacity="0.5019607843137255"/>
<polygon points="166 137 174 159 155 167 146 144" fill="rgb(194,127,89)" fill-opacity="0.5019607843137255"/>
<polygon points="188 93 181 87 189 78 195 83" fill="rgb(200,128,90)" fill-opacity="0.5019607843137255"/>
<polygon points="124 346 130 333 163 349 157 362" fill="rgb(0,0,0)" fill-opacity="0.5019607843137255"/>
<polygon points="185 147 203 151 200 163 182 159" fill="rgb(238,171,138)" fill-opacity="0.5019607843137255"/>
<polygon points="142 34 108 31 109 23 143 26" fill="rgb(48,39,31)" fill-opacity="0.5019607843137255"/>
<polygon points="86 259 96 258 97 310 87 311" fill="rgb(0,0,0)" fill-opacity="0.5019607843137255"/>
<polygon points="78 317 69 265 75 264 84 316" fill="rgb(19,34,41)" fill-opacity="0.5019607843137255"/>
<polygon points="82 239 103 210 112 216 91 246" fill="rgb(198,148,112)" fill-opacity="0.5019607843137255"/>
<polygon points="193 199 183 184 214 162 224 177" fill="rgb(255,194,155)" fill-opacity="0.5019607843137255"/>
<polygon points="50 229 20 206 43 177 72 199" fill="rgb(255,255,255)" fill-opacity="0.5019607843137255"/>
<polygon points="114 71 110 87 73 78 77 62" fill="rgb(65,49,40)" fill-opacity="0.5019607843137255"/>
<polygon points="291 316 279 314 284 286 296 288" fill="rgb(71,87,98)" fill-opacity="0.5019607843137255"/>
<polygon points="199 134 161 117 172 90 211 107" fill="rgb(253,181,136)" fill-opacity="0.5019607843137255"/>
<polygon points="211 265 219 268 206 302 198 299" fill="rgb(255,187,142)" fill-opacity="0.5019607843137255"/>
<polygon points="200 167 193 168 192 164 199 163" fill="rgb(102,41,10)" fill-opacity="0.5019607843137255"/>
<polygon points="99 167 117 178 112 186 94 174" fill="rgb(195,123,91)" fill-opacity="0.5019607843137255"/>
<polygon points="41 239 37 211 76 206 80 234" fill="rgb(255,255,255)" fill-opacity="0.5019607843137255"/>
<polygon points="72 67 88 59 91 66 75 74" fill="rgb(84,80,73)" fill-opacity="0.5019607843137255"/>
<polygon points="155 54 156 23 182 24 181 55" fill="rgb(45,38,34)" fill-opacity="0.5019607843137255"/>
<polygon points="198 389 168 371 188 337 218 355" fill="rgb(24,39,49)" fill-opacity="0.5019607843137255"/>
<polygon points="228 122 217 97 223 94 235 119" fill="rgb(48,33,22)" fill-opacity="0.5019607843137255"/>
<polygon points="232 410 228 407 239 393 243 396" fill="rgb(253,249,245)" fill-opacity="0.5019607843137255"/>
<polygon points="96 270 111 232 127 238 113 276" fill="rgb(170,123,89)" fill-opacity="0.5019607843137255"/>
<polygon points="172 337 167 328 187 318 192 327" fill="rgb(242,189,159)" fill-opacity="0.5019607843137255"/>
<polygon points="310 271 271 280 235 128 274 119" fill="rgb(255,255,255)" fill-opacity="0.5019607843137255"/>
<polygon points="91 55 102 29 106 30 95 56" fill="rgb(95,90,84)" fill-opacity="0.5019607843137255"/>
<polygon points="58 79 59 77 66 82 65 84" fill="rgb(255,255,255)" fill-opacity="0.5019607843137255"/>
<polygon points="126 51 125 37 157 36 158 50" fill="rgb(13,4,0)" fill-opacity="0.5019607843137255"/>
<polygon points="2 68 1 -2 69 -3 69 68" fill="rgb(255,255,255)" fill-opacity="0.5019607843137255"/>
<polygon points="102 172 120 166 126 183 108 189" fill="rgb(217,143,110)" fill-opacity="0.5019607843137255"/>
<polygon points="189 204 164 188 171 177 196 192" fill="rgb(255,209,174)" fill-opacity="0.5019607843137255"/>
<polygon points="95 286 109 261 136 277 121 302" fill="rgb(158,114,81)" fill-opacity="0.5019607843137255"/>
<polygon points="273 414 264 406 266 403 275 411" fill="rgb(255,255,255)" fill-opacity="0.5019607843137255"/>
<polygon points="80 141 74 142 73 105 79 104" fill="rgb(155,108,80)" fill-opacity="0.5019607843137255"/>
<polygon points="3 390 7 390 7 411 3 411" fill="rgb(0,0,0)" fill-opacity="0.5019607843137255"/>
<polygon points="183 320 169 313 196 256 209 262" fill="rgb(218,154,112)" fill-opacity="0.5019607843137255"/>
<polygon points="224 149 227 134 234 135 231 150" fill="rgb(91,84,80)" fill-opacity="0.5019607843137255"/>
<polygon points="244 312 258 284 310 311 296 338" fill="rgb(54,62,74)" fill-opacity="0.5019607843137255"/>
<polygon points="60 144 27 165 -17 93 15 73" fill="rgb(255,255,255)" fill-opacity="0.5019607843137255"/>
<polygon points="73 181 78 137 81 137 76 182" fill="rgb(197,157,127)" fill-opacity="0.5019607843137255"/>
<polygon points="64 296 48 319 22 302 38 279" fill="rgb(23,37,43)" fill-opacity="0.5019607843137255"/>
<polygon points="274 375 286 394 269 404 257 385" fill="rgb(40,54,65)" fill-opacity="0.5019607843137255"/>
<polygon points="189 236 204 247 193 260 179 249" fill="rgb(198,149,114)" fill-opacity="0.5019607843137255"/>
<polygon points="144 84 146 76 190 87 188 95" fill="rgb(202,140,107)" fill-opacity="0.5019607843137255"/>
<polygon points="175 34 150 37 147 22 172 18" fill="rgb(72,63,55)" fill-opacity="0.5019607843137255"/>
<polygon points="124 274 89 246 100 233 134 260" fill="rgb(190,138,102)" fill-opacity="0.5019607843137255"/>
<polygon points="133 229 127 233 109 209 115 205" fill="rgb(220,155,120)" fill-opacity="0.5019607843137255"/>
<polygon points="197 341 189 329 197 323 206 335" fill="rgb(7,16,29)" fill-opacity="0.5019607843137255"/>
<polygon points="215 297 222 271 230 273 223 299" fill="rgb(44,48,59)" fill-opacity="0.5019607843137255"/>
<polygon points="235 274 219 269 221 263 237 268" fill="rgb(61,71,86)" fill-opacity="0.5019607843137255"/>
<polygon points="172 178 164 201 146 195 154 172" fill="rgb(255,193,157)" fill-opacity="0.5019607843137255"/>
<polygon points="218 20 100 3 102 -9 220 7" fill="rgb(255,255,255)" fill-opacity="0.5019607843137255"/>
<polygon points="-1 293 13 287 17 297 2 303" fill="rgb(64,89,107)" fill-opacity="0.5019607843137255"/>
<polygon points="256 402 269 407 269 410 255 405" fill="rgb(113,106,127)" fill-opacity="0.5019607843137255"/>
<polygon points="106 134 119 144 114 150 102 140" fill="rgb(149,103,75)" fill-opacity="0.5019607843137255"/>
<polygon points="162 167 123 150 128 137 168 154" fill="rgb(202,133,96)" fill-opacity="0.5019607843137255"/>
<polygon points="225 279 230 266 255 276 250 289" fill="rgb(62,75,88)" fill-opacity="0.5019607843137255"/>
<polygon points="-3 302 -4 300 27 281 28 283" fill="rgb(61,80,95)" fill-opacity="0.5019607843137255"/>
<polygon points="96 155 98 148 119 153 118 160" fill="rgb(252,174,137)" fill-opacity="0.5019607843137255"/>
<polygon points="234 397 236 394 249 402 247 405" fill="rgb(119,116,143)" fill-opacity="0.5019607843137255"/>
<polygon points="172 143 174 135 187 139 184 147" fill="rgb(159,118,96)" fill-opacity="0.5019607843137255"/>
<polygon points="158 339 125 330 125 328 158 337" fill="rgb(184,140,124)" fill-opacity="0.5019607843137255"/>
<polygon points="83 376 88 409 56 414 51 381" fill="rgb(13,34,44)" fill-opacity="0.5019607843137255"/>
<polygon points="78 242 65 267 48 259 61 234" fill="rgb(255,255,255)" fill-opacity="0.5019607843137255"/>
<polygon points="244 408 244 409 236 409 236 408" fill="rgb(255,255,255)" fill-opacity="0.5019607843137255"/>
<polygon points="80 86 84 76 95 81 91 91" fill="rgb(46,30,23)" fill-opacity="0.5019607843137255"/>
<polygon points="213 59 226 78 225 79 211 60" fill="rgb(114,111,105)" fill-opacity="0.5019607843137255"/>
<polygon points="123 340 126 366 97 370 93 344" fill="rgb(0,5,17)" fill-opacity="0.5019607843137255"/>
<polygon points="165 221 167 226 145 233 144 229" fill="rgb(255,176,144)" fill-opacity="0.5019607843137255"/>
<polygon points="139 224 125 215 127 211 142 220" fill="rgb(138,81,57)" fill-opacity="0.5019607843137255"/>
<polygon points="195 285 212 279 216 292 199 298" fill="rgb(244,176,132)" fill-opacity="0.5019607843137255"/>
<polygon points="143 154 141 159 113 148 115 143" fill="rgb(176,112,79)" fill-opacity="0.5019607843137255"/>
<polygon points="67 105 79 81 85 84 73 108" fill="rgb(25,11,3)" fill-opacity="0.5019607843137255"/>
<polygon points="175 224 179 202 214 209 210 231" fill="rgb(241,174,133)" fill-opacity="0.5019607843137255"/>
<polygon points="71 119 67 118 77 97 80 98" fill="rgb(90,65,48)" fill-opacity="0.5019607843137255"/>
<polygon points="18 284 0 291 -1 284 16 278" fill="rgb(255,255,255)" fill-opacity="0.5019607843137255"/>
<polygon points="107 31 106 29 122 20 123 22" fill="rgb(97,85,81)" fill-opacity="0.5019607843137255"/>
<polygon points="120 66 113 28 139 24 146 62" fill="rgb(27,17,11)" fill-opacity="0.5019607843137255"/>
<polygon points="208 87 206 99 186 95 188 84" fill="rgb(199,129,91)" fill-opacity="0.5019607843137255"/>
<polygon points="110 313 150 295 155 304 115 322" fill="rgb(176,124,90)" fill-opacity="0.5019607843137255"/>
<polygon points="6 327 44 310 55 335 18 353" fill="rgb(13,26,34)" fill-opacity="0.5019607843137255"/>
<polygon points="89 165 83 203 72 201 79 163" fill="rgb(200,149,115)" fill-opacity="0.5019607843137255"/>
<polygon points="51 225 71 260 44 276 24 241" fill="rgb(255,255,255)" fill-opacity="0.5019607843137255"/>
<polygon points="216 403 217 406 208 409 207 406" fill="rgb(255,251,246)" fill-opacity="0.5019607843137255"/>
<polygon points="123 87 137 89 133 117 118 115" fill="rgb(225,156,117)" fill-opacity="0.5019607843137255"/>
<polygon points="250 322 224 314 234 282 260 290" fill="rgb(58,69,81)" fill-opacity="0.5019607843137255"/>
<polygon points="68 177 73 186 71 188 65 178" fill="rgb(178,107,78)" fill-opacity="0.5019607843137255"/>
<polygon points="-23 180 3 144 67 192 40 228" fill="rgb(255,255,255)" fill-opacity="0.5019607843137255"/>
<polygon points="85 275 58 295 49 283 77 263" fill="rgb(18,31,41)" fill-opacity="0.5019607843137255"/>
<polygon points="250 290 271 280 274 286 253 296" fill="rgb(70,85,97)" fill-opacity="0.5019607843137255"/>
<polygon points="90 149 89 170 83 169 84 148" fill="rgb(168,122,93)" fill-opacity="0.5019607843137255"/>
<polygon points="190 315 200 301 209 308 198 321" fill="rgb(252,188,155)" fill-opacity="0.5019607843137255"/>
<polygon points="124 294 108 301 96 271 112 265" fill="rgb(160,114,83)" fill-opacity="0.5019607843137255"/>
<polygon points="241 272 253 273 252 280 240 279" fill="rgb(69,84,95)" fill-opacity="0.5019607843137255"/>
<polygon points="190 414 187 403 190 402 193 413" fill="rgb(255,255,255)" fill-opacity="0.5019607843137255"/>
<polygon points="218 0 293 0 293 64 218 64" fill="rgb(255,255,255)" fill-opacity="0.5019607843137255"/>
<polygon points="201 138 215 157 202 167 187 148" fill="rgb(219,158,121)" fill-opacity="0.5019607843137255"/>
<polygon points="210 99 214 99 223 144 219 144" fill="rgb(198,145,114)" fill-opacity="0.5019607843137255"/>
<polygon points="138 23 133 24 130 12 135 10" fill="rgb(86,72,68)" fill-opacity="0.5019607843137255"/>
<polygon points="231 404 258 411 257 415 230 408" fill="rgb(248,245,241)" fill-opacity="0.5019607843137255"/>
<polygon points="109 25 110 26 104 28 103 27" fill="rgb(117,108,100)" fill-opacity="0.5019607843137255"/>
<polygon points="84 53 66 68 51 50 69 35" fill="rgb(255,255,255)" fill-opacity="0.5019607843137255"/>
<polygon points="229 159 230 160 228 162 227 161" fill="rgb(255,197,169)" fill-opacity="0.5019607843137255"/>
<polygon points="87 186 118 219 111 226 80 193" fill="rgb(233,163,124)" fill-opacity="0.5019607843137255"/>
<polygon points="168 137 177 149 162 160 153 149" fill="rgb(187,128,93)" fill-opacity="0.5019607843137255"/>
<polygon points="196 86 193 75 198 74 201 85" fill="rgb(102,58,31)" fill-opacity="0.5019607843137255"/>
<polygon points="202 200 183 203 180 189 199 186" fill="rgb(255,203,167)" fill-opacity="0.5019607843137255"/>
<polygon points="142 25 138 26 133 12 137 11" fill="rgb(79,66,60)" fill-opacity="0.5019607843137255"/></svg>