<?xml version="1.0" standalone="no"?>
<svg xmlns="http://www.w3.org/2000/svg" version="1.2" baseProfile="tiny" width="294" height="412">
<rect x="0" y="0" width="293" height="280" fill="rgb(255,253,228)" fill-opacity="0.5019607843137255" />
<rect x="0" y="275" width="293" height="136" fill="rgb(0,0,0)" fill-opacity="0.5019607843137255" />
<rect x="229" y="0" width="64" height="285" fill="rgb(255,255,255)" fill-opacity="0.5019607843137255" />
<rect x="184" y="0" width="109" height="53" fill="rgb(255,255,255)" fill-opacity="0.5019607843137255" />
<rect x="213" y="78" width="20" height="61" fill="rgb(31,20,15)" fill-opacity="0.5019607843137255" />
<rect x="0" y="0" width="62" height="285" fill="rgb(255,255,255)" fill-opacity="0.5019607843137255" />
<rect x="204" y="160" width="89" height="100" fill="rgb(255,255,255)" fill-opacity="0.5019607843137255" />
<rect x="0" y="0" width="103" height="46" fill="rgb(255,255,255)" fill-opacity="0.5019607843137255" />
<rect x="0" y="175" width="84" height="90" fill="rgb(255,255,255)" fill-opacity="0.5019607843137255" />
<rect x="115" y="249" width="98" height="86" fill="rgb(235,170,124)" fill-opacity="0.5019607843137255" />
<rect x="226" y="0" width="67" height="97" fill="rgb(255,255,255)" fill-opacity="0.5019607843137255" />
<rect x="183" y="0" width="110" height="41" fill="rgb(255,255,255)" fill-opacity="0.5019607843137255" />
<rect x="0" y="0" width="190" height="16" fill="rgb(255,255,255)" fill-opacity="0.5019607843137255" />
<rect x="0" y="0" width="59" height="278" fill="rgb(255,255,255)" fill-opacity="0.5019607843137255" />
<rect x="186" y="390" width="53" height="19" fill="rgb(228,223,235)" fill-opacity="0.5019607843137255" />
<rect x="189" y="58" width="30" height="30" fill="rgb(11,0,0)" fill-opacity="0.5019607843137255" />
<rect x="0" y="339" width="174" height="72" fill="rgb(0,24,36)" fill-opacity="0.5019607843137255" />
<rect x="90" y="160" width="43" height="10" fill="rgb(71,37,27)" fill-opacity="0.5019607843137255" />
<rect x="217" y="196" width="20" height="66" fill="rgb(255,255,255)" fill-opacity="0.5019607843137255" />
<rect x="84" y="323" width="41" height="40" fill="rgb(0,0,0)" fill-opacity="0.5019607843137255" />
<rect x="0" y="9" width="22" height="284" fill="rgb(255,255,255)" fill-opacity="0.5019607843137255" />
<rect x="188" y="324" width="36" height="62" fill="rgb(9,28,40)" fill-opacity="0.5019607843137255" />
<rect x="94" y="40" width="104" height="30" fill="rgb(29,7,0)" fill-opacity="0.5019607843137255" />
<rect x="41" y="273" width="54" height="79" fill="rgb(0,11,24)" fill-opacity="0.5019607843137255" />
<rect x="14" y="283" width="46" height="128" fill="rgb(17,38,49)" fill-opacity="0.5019607843137255" />
<rect x="61" y="85" width="17" height="54" fill="rgb(22,14,9)" fill-opacity="0.5019607843137255" />
<rect x="67" y="154" width="20" height="46" fill="rgb(149,106,77)" fill-opacity="0.5019607843137255" />
<rect x="79" y="260" width="17" height="51" fill="rgb(0,0,0)" fill-opacity="0.5019607843137255" />
<rect x="207" y="0" width="86" height="65" fill="rgb(255,255,255)" fill-opacity="0.5019607843137255" />
<rect x="0" y="213" width="80" height="52" fill="rgb(255,255,255)" fill-opacity="0.5019607843137255" />
<rect x="126" y="338" width="66" height="58" fill="rgb(4,15,25)" fill-opacity="0.5019607843137255" />
<rect x="208" y="311" width="10" height="18" fill="rgb(0,1,19)" fill-opacity="0.5019607843137255" />
<rect x="185" y="276" width="21" height="42" fill="rgb(255,203,153)" fill-opacity="0.5019607843137255" />
<rect x="252" y="283" width="29" height="44" fill="rgb(61,68,82)" fill-opacity="0.5019607843137255" />
<rect x="190" y="57" width="24" height="20" fill="rgb(38,22,13)" fill-opacity="0.5019607843137255" />
<rect x="222" y="110" width="7" height="70" fill="rgb(98,67,54)" fill-opacity="0.5019607843137255" />
<rect x="54" y="0" width="75" height="20" fill="rgb(255,255,255)" fill-opacity="0.5019607843137255" />
<rect x="120" y="205" width="28" height="36" fill="rgb(153,74,58)" fill-opacity="0.5019607843137255" />
<rect x="70" y="68" width="14" height="38" fill="rgb(23,17,11)" fill-opacity="0.5019607843137255" />
<rect x="1" y="368" width="176" height="39" fill="rgb(14,34,45)" fill-opacity="0.5019607843137255" />
<rect x="66" y="89" width="6" height="92" fill="rgb(60,40,32)" fill-opacity="0.5019607843137255" />
<rect x="228" y="54" width="57" height="37" fill="rgb(255,255,255)" fill-opacity="0.5019607843137255" />
<rect x="208" y="257" width="15" height="10" fill="rgb(50,52,65)" fill-opacity="0.5019607843137255" />
<rect x="72" y="136" width="113" height="25" fill="rgb(180,125,93)" fill-opacity="0.5019607843137255" />
<rect x="57" y="104" width="13" height="27" fill="rgb(56,43,33)" fill-opacity="0.5019607843137255" />
<rect x="171" y="36" width="20" height="43" fill="rgb(70,50,36)" fill-opacity="0.5019607843137255" />
<rect x="106" y="241" width="40" height="75" fill="rgb(177,126,90)" fill-opacity="0.5019607843137255" />
<rect x="226" y="171" width="42" height="92" fill="rgb(255,255,255)" fill-opacity="0.5019607843137255" />
<rect x="0" y="136" width="61" height="67" fill="rgb(255,255,255)" fill-opacity="0.5019607843137255" />
<rect x="114" y="68" width="64" height="16" fill="rgb(142,93,64)" fill-opacity="0.5019607843137255" />
<rect x="209" y="409" width="25" height="2" fill="rgb(0,0,0)" fill-opacity="0.5019607843137255" />
<rect x="213" y="295" width="74" height="92" fill="rgb(43,54,64)" fill-opacity="0.5019607843137255" />
<rect x="96" y="267" width="37" height="28" fill="rgb(156,115,82)" fill-opacity="0.5019607843137255" />
<rect x="130" y="254" width="47" height="16" fill="rgb(252,176,129)" fill-opacity="0.5019607843137255" />
<rect x="0" y="42" width="56" height="233" fill="rgb(255,255,255)" fill-opacity="0.5019607843137255" />
<rect x="236" y="43" width="57" height="227" fill="rgb(255,255,255)" fill-opacity="0.5019607843137255" />
<rect x="63" y="0" width="132" height="12" fill="rgb(255,255,255)" fill-opacity="0.5019607843137255" />
<rect x="0" y="292" width="16" height="75" fill="rgb(38,61,68)" fill-opacity="0.5019607843137255" />
<rect x="162" y="266" width="34" height="30" fill="rgb(196,137,95)" fill-opacity="0.5019607843137255" />
<rect x="178" y="24" width="5" height="29" fill="rgb(60,49,43)" fill-opacity="0.5019607843137255" />
<rect x="214" y="223" width="54" height="37" fill="rgb(255,255,255)" fill-opacity="0.5019607843137255" />
<rect x="61" y="0" width="55" height="23" fill="rgb(255,255,255)" fill-opacity="0.5019607843137255" />
<rect x="143" y="0" width="73" height="18" fill="rgb(255,255,255)" fill-opacity="0.5019607843137255" />
<rect x="231" y="286" width="62" height="31" fill="rgb(70,80,92)" fill-opacity="0.5019607843137255" />
<rect x="173" y="318" width="18" height="10" fill="rgb(255,223,183)" fill-opacity="0.5019607843137255" />
<rect x="66" y="265" width="30" height="11" fill="rgb(0,10,19)" fill-opacity="0.5019607843137255" />
<rect x="132" y="88" width="55" height="50" fill="rgb(247,180,143)" fill-opacity="0.5019607843137255" />
<rect x="0" y="250" width="20" height="37" fill="rgb(255,255,255)" fill-opacity="0.5019607843137255" />
<rect x="169" y="411" width="38" height="0" fill="rgb(255,255,255)" fill-opacity="0.5019607843137255" />
<rect x="129" y="14" width="26" height="16" fill="rgb(79,69,63)" fill-opacity="0.5019607843137255" />
<rect x="0" y="411" width="168" height="0" fill="rgb(0,0,0)" fill-opacity="0.5019607843137255" />
<rect x="242" y="411" width="33" height="0" fill="rgb(255,255,255)" fill-opacity="0.5019607843137255" />
<rect x="88" y="116" width="74" height="19" fill="rgb(234,164,125)" fill-opacity="0.5019607843137255" />
<rect x="121" y="396" width="49" height="15" fill="rgb(0,16,29)" fill-opacity="0.5019607843137255" />
<rect x="85" y="181" width="61" height="22" fill="rgb(249,163,125)" fill-opacity="0.5019607843137255" />
<rect x="226" y="268" width="13" height="20" fill="rgb(47,57,73)" fill-opacity="0.5019607843137255" />
<rect x="95" y="85" width="12" height="13" fill="rgb(138,87,56)" fill-opacity="0.5019607843137255" />
<rect x="0" y="253" width="43" height="28" fill="rgb(255,255,255)" fill-opacity="0.5019607843137255" />
<rect x="219" y="101" width="13" height="22" fill="rgb(63,42,28)" fill-opacity="0.5019607843137255" />
<rect x="173" y="405" width="5" height="6" fill="rgb(255,255,255)" fill-opacity="0.5019607843137255" />
<rect x="125" y="337" width="23" height="26" fill="rgb(0,0,0)" fill-opacity="0.5019607843137255" />
<rect x="217" y="0" width="76" height="71" fill="rgb(255,255,255)" fill-opacity="0.5019607843137255" />
<rect x="15" y="158" width="51" height="64" fill="rgb(255,255,255)" fill-opacity="0.5019607843137255" />
<rect x="175" y="0" width="16" height="24" fill="rgb(255,255,255)" fill-opacity="0.5019607843137255" />
<rect x="141" y="161" width="23" height="21" fill="rgb(255,196,157)" fill-opacity="0.5019607843137255" />
<rect x="224" y="280" width="49" height="47" fill="rgb(55,65,77)" fill-opacity="0.5019607843137255" />
<rect x="1" y="291" width="32" height="16" fill="rgb(50,70,80)" fill-opacity="0.5019607843137255" />
<rect x="62" y="0" width="39" height="33" fill="rgb(255,255,255)" fill-opacity="0.5019607843137255" />
<rect x="0" y="263" width="28" height="19" fill="rgb(255,255,255)" fill-opacity="0.5019607843137255" />
<rect x="143" y="19" width="31" height="15" fill="rgb(76,68,61)" fill-opacity="0.5019607843137255" />
<rect x="36" y="278" width="18" height="28" fill="rgb(25,41,50)" fill-opacity="0.5019607843137255" />
<rect x="159" y="13" width="3" height="11" fill="rgb(214,206,206)" fill-opacity="0.5019607843137255" />
<rect x="216" y="264" width="15" height="8" fill="rgb(18,36,56)" fill-opacity="0.5019607843137255" />
<rect x="176" y="333" width="23" height="14" fill="rgb(1,9,21)" fill-opacity="0.5019607843137255" />
<rect x="125" y="9" width="5" height="14" fill="rgb(241,236,234)" fill-opacity="0.5019607843137255" />
<rect x="18" y="14" width="53" height="61" fill="rgb(255,255,255)" fill-opacity="0.5019607843137255" />
<rect x="213" y="262" width="14" height="2" fill="rgb(0,5,32)" fill-opacity="0.5019607843137255" />
<rect x="235" y="368" width="33" height="25" fill="rgb(35,48,58)" fill-opacity="0.5019607843137255" />
<rect x="240" y="399" width="5" height="6" fill="rgb(39,42,86)" fill-opacity="0.5019607843137255" />
<rect x="204" y="246" width="16" height="10" fill="rgb(253,255,255)" fill-opacity="0.5019607843137255" />
<rect x="0" y="70" width="54" height="131" fill="rgb(255,255,255)" fill-opacity="0.5019607843137255" />
<rect x="104" y="263" width="13" height="49" fill="rgb(161,116,80)" fill-opacity="0.5019607843137255" />
<rect x="98" y="273" width="44" height="12" fill="rgb(151,110,82)" fill-opacity="0.5019607843137255" />
<rect x="179" y="311" width="18" height="14" fill="rgb(255,197,160)" fill-opacity="0.5019607843137255" />
<rect x="262" y="249" width="31" height="31" fill="rgb(255,255,255)" fill-opacity="0.5019607843137255" />
<rect x="120" y="193" width="8" height="41" fill="rgb(199,132,101)" fill-opacity="0.5019607843137255" />
<rect x="88" y="224" width="20" height="26" fill="rgb(194,151,115)" fill-opacity="0.5019607843137255" />
<rect x="221" y="192" width="54" height="71" fill="rgb(255,255,255)" fill-opacity="0.5019607843137255" />
<rect x="52" y="272" width="28" height="36" fill="rgb(13,27,34)" fill-opacity="0.5019607843137255" />
<rect x="120" y="53" width="73" height="20" fill="rgb(56,37,25)" fill-opacity="0.5019607843137255" />
<rect x="245" y="253" width="24" height="19" fill="rgb(255,255,255)" fill-opacity="0.5019607843137255" />
<rect x="72" y="145" width="11" height="30" fill="rgb(198,160,131)" fill-opacity="0.5019607843137255" />
<rect x="238" y="396" width="8" height="3" fill="rgb(255,255,255)" fill-opacity="0.5019607843137255" />
<rect x="275" y="411" width="18" height="0" fill="rgb(8,27,34)" fill-opacity="0.5019607843137255" />
<rect x="108" y="35" width="54" height="16" fill="rgb(14,8,3)" fill-opacity="0.5019607843137255" />
<rect x="112" y="309" width="40" height="13" fill="rgb(179,122,88)" fill-opacity="0.5019607843137255" />
<rect x="188" y="407" width="7" height="4" fill="rgb(255,255,255)" fill-opacity="0.5019607843137255" />
<rect x="129" y="126" width="30" height="23" fill="rgb(227,153,116)" fill-opacity="0.5019607843137255" />
<rect x="210" y="75" width="16" height="22" fill="rgb(41,24,16)" fill-opacity="0.5019607843137255" />
<rect x="199" y="403" width="5" height="8" fill="rgb(50,57,83)" fill-opacity="0.5019607843137255" />
<rect x="115" y="327" width="7" height="12" fill="rgb(0,0,0)" fill-opacity="0.5019607843137255" />
<rect x="192" y="292" width="10" height="29" fill="rgb(255,187,146)" fill-opacity="0.5019607843137255" />
<rect x="206" y="406" width="21" height="2" fill="rgb(255,255,255)" fill-opacity="0.5019607843137255" />
<rect x="156" y="284" width="30" height="32" fill="rgb(206,145,103)" fill-opacity="0.5019607843137255" />
<rect x="172" y="320" width="17" height="10" fill="rgb(249,187,150)" fill-opacity="0.5019607843137255" />
<rect x="133" y="10" width="4" height="5" fill="rgb(61,47,40)" fill-opacity="0.5019607843137255" />
<rect x="178" y="230" width="16" height="51" fill="rgb(197,142,102)" fill-opacity="0.5019607843137255" />
<rect x="222" y="158" width="3" height="28" fill="rgb(177,104,73)" fill-opacity="0.5019607843137255" />
<rect x="159" y="100" width="49" height="33" fill="rgb(254,183,139)" fill-opacity="0.5019607843137255" />
<rect x="103" y="168" width="26" height="21" fill="rgb(224,152,115)" fill-opacity="0.5019607843137255" />
<rect x="276" y="339" width="17" height="72" fill="rgb(40,54,63)" fill-opacity="0.5019607843137255" />
<rect x="205" y="312" width="12" height="74" fill="rgb(27,40,48)" fill-opacity="0.5019607843137255" />
<rect x="224" y="36" width="30" height="41" fill="rgb(255,255,255)" fill-opacity="0.5019607843137255" />
<rect x="276" y="257" width="17" height="26" fill="rgb(255,255,255)" fill-opacity="0.5019607843137255" />
<rect x="113" y="87" width="21" height="30" fill="rgb(222,151,109)" fill-opacity="0.5019607843137255" />
<rect x="140" y="197" width="9" height="17" fill="rgb(221,135,105)" fill-opacity="0.5019607843137255" />
<rect x="78" y="210" width="22" height="14" fill="rgb(191,147,116)" fill-opacity="0.5019607843137255" />
<rect x="169" y="337" width="18" height="60" fill="rgb(14,28,40)" fill-opacity="0.5019607843137255" />
<rect x="44" y="144" width="16" height="126" fill="rgb(255,255,255)" fill-opacity="0.5019607843137255" />
<rect x="48" y="274" width="17" height="2" fill="rgb(22,42,50)" fill-opacity="0.5019607843137255" />
<rect x="127" y="360" width="51" height="43" fill="rgb(11,27,39)" fill-opacity="0.5019607843137255" />
<rect x="99" y="263" width="9" height="37" fill="rgb(153,111,77)" fill-opacity="0.5019607843137255" />
<rect x="139" y="92" width="35" height="30" fill="rgb(246,184,149)" fill-opacity="0.5019607843137255" />
<rect x="121" y="295" width="18" height="33" fill="rgb(176,124,90)" fill-opacity="0.5019607843137255" />
<rect x="192" y="261" width="18" height="45" fill="rgb(234,167,124)" fill-opacity="0.5019607843137255" />
<rect x="56" y="188" width="11" height="31" fill="rgb(255,255,255)" fill-opacity="0.5019607843137255" />
<rect x="151" y="220" width="24" height="10" fill="rgb(255,181,149)" fill-opacity="0.5019607843137255" />
<rect x="0" y="248" width="45" height="28" fill="rgb(255,255,255)" fill-opacity="0.5019607843137255" />
<rect x="49" y="368" width="125" height="38" fill="rgb(12,30,41)" fill-opacity="0.5019607843137255" />
<rect x="89" y="302" width="12" height="24" fill="rgb(0,0,0)" fill-opacity="0.5019607843137255" />
<rect x="153" y="189" width="16" height="17" fill="rgb(255,170,138)" fill-opacity="0.5019607843137255" />
<rect x="203" y="163" width="15" height="64" fill="rgb(245,181,144)" fill-opacity="0.5019607843137255" />
<rect x="150" y="11" width="2" height="12" fill="rgb(116,104,98)" fill-opacity="0.5019607843137255" />
<rect x="223" y="169" width="3" height="20" fill="rgb(216,149,120)" fill-opacity="0.5019607843137255" />
<rect x="244" y="278" width="21" height="12" fill="rgb(66,82,92)" fill-opacity="0.5019607843137255" />
<rect x="0" y="276" width="9" height="15" fill="rgb(255,255,255)" fill-opacity="0.5019607843137255" />
<rect x="138" y="81" width="37" height="7" fill="rgb(213,150,117)" fill-opacity="0.5019607843137255" />
<rect x="210" y="258" width="4" height="4" fill="rgb(0,0,0)" fill-opacity="0.5019607843137255" />
<rect x="174" y="336" width="24" height="54" fill="rgb(20,33,43)" fill-opacity="0.5019607843137255" />
<rect x="77" y="263" width="7" height="9" fill="rgb(22,38,44)" fill-opacity="0.5019607843137255" />
<rect x="212" y="21" width="29" height="38" fill="rgb(255,255,255)" fill-opacity="0.5019607843137255" />
<rect x="20" y="192" width="48" height="75" fill="rgb(255,255,255)" fill-opacity="0.5019607843137255" />
<rect x="156" y="52" width="11" height="27" fill="rgb(76,51,36)" fill-opacity="0.5019607843137255" />
<rect x="194" y="241" width="8" height="20" fill="rgb(210,165,133)" fill-opacity="0.5019607843137255" />
<rect x="259" y="239" width="34" height="37" fill="rgb(255,255,255)" fill-opacity="0.5019607843137255" />
<rect x="102" y="0" width="25" height="19" fill="rgb(255,255,255)" fill-opacity="0.5019607843137255" />
<rect x="173" y="229" width="10" height="12" fill="rgb(162,106,70)" fill-opacity="0.5019607843137255" />
<rect x="215" y="86" width="13" height="15" fill="rgb(45,24,13)" fill-opacity="0.5019607843137255" />
<rect x="174" y="384" width="1" height="22" fill="rgb(8,23,34)" fill-opacity="0.5019607843137255" />
<rect x="204" y="22" width="33" height="27" fill="rgb(255,255,255)" fill-opacity="0.5019607843137255" />
<rect x="289" y="267" width="4" height="21" fill="rgb(255,255,255)" fill-opacity="0.5019607843137255" />
<rect x="234" y="313" width="29" height="37" fill="rgb(47,56,68)" fill-opacity="0.5019607843137255" />
<rect x="104" y="335" width="32" height="12" fill="rgb(0,0,0)" fill-opacity="0.5019607843137255" />
<rect x="119" y="200" width="24" height="7" fill="rgb(198,114,91)" fill-opacity="0.5019607843137255" />
<rect x="145" y="255" width="22" height="16" fill="rgb(248,174,130)" fill-opacity="0.5019607843137255" />
<rect x="12" y="326" width="62" height="28" fill="rgb(7,21,32)" fill-opacity="0.5019607843137255" />
<rect x="0" y="277" width="5" height="16" fill="rgb(255,255,255)" fill-opacity="0.5019607843137255" />
<rect x="85" y="57" width="18" height="3" fill="rgb(46,38,35)" fill-opacity="0.5019607843137255" />
<rect x="226" y="159" width="3" height="13" fill="rgb(213,120,89)" fill-opacity="0.5019607843137255" />
<rect x="82" y="173" width="19" height="16" fill="rgb(226,158,119)" fill-opacity="0.5019607843137255" />
<rect x="103" y="0" width="45" height="11" fill="rgb(255,255,255)" fill-opacity="0.5019607843137255" />
<rect x="24" y="259" width="35" height="12" fill="rgb(255,255,255)" fill-opacity="0.5019607843137255" />
<rect x="145" y="158" width="6" height="27" fill="rgb(255,214,182)" fill-opacity="0.5019607843137255" />
<rect x="89" y="74" width="23" height="13" fill="rgb(83,56,41)" fill-opacity="0.5019607843137255" />
<rect x="281" y="301" width="12" height="45" fill="rgb(57,64,76)" fill-opacity="0.5019607843137255" />
<rect x="136" y="328" width="15" height="9" fill="rgb(189,135,108)" fill-opacity="0.5019607843137255" />
<rect x="137" y="0" width="45" height="10" fill="rgb(255,255,255)" fill-opacity="0.5019607843137255" />
<rect x="177" y="80" width="13" height="13" fill="rgb(197,128,88)" fill-opacity="0.5019607843137255" />
<rect x="166" y="318" width="15" height="17" fill="rgb(225,165,129)" fill-opacity="0.5019607843137255" />
<rect x="89" y="157" width="13" height="4" fill="rgb(186,130,99)" fill-opacity="0.5019607843137255" />
<rect x="123" y="224" width="30" height="8" fill="rgb(218,145,116)" fill-opacity="0.5019607843137255" />
<rect x="200" y="144" width="10" height="21" fill="rgb(220,157,118)" fill-opacity="0.5019607843137255" />
<rect x="96" y="95" width="11" height="23" fill="rgb(195,133,91)" fill-opacity="0.5019607843137255" />
<rect x="173" y="90" width="26" height="26" fill="rgb(242,168,121)" fill-opacity="0.5019607843137255" />
<rect x="209" y="409" width="18" height="2" fill="rgb(27,31,40)" fill-opacity="0.5019607843137255" />
<rect x="263" y="404" width="8" height="5" fill="rgb(255,253,255)" fill-opacity="0.5019607843137255" />
<rect x="225" y="401" width="5" height="3" fill="rgb(44,45,81)" fill-opacity="0.5019607843137255" />
<rect x="59" y="270" width="21" height="7" fill="rgb(17,32,43)" fill-opacity="0.5019607843137255" />
<rect x="261" y="261" width="31" height="16" fill="rgb(255,255,255)" fill-opacity="0.5019607843137255" />
<rect x="198" y="302" width="6" height="14" fill="rgb(255,196,159)" fill-opacity="0.5019607843137255" /></svg>